<?xml version="1.0" encoding="UTF-8"?>
<svg id="_レイヤー_1" data-name="レイヤー 1" xmlns="http://www.w3.org/2000/svg" viewBox="0 0 26.74 28.42">
  <defs>
    <style>
      .cls-1 {
        fill: none;
        stroke: #eb6648;
        stroke-linecap: round;
        stroke-linejoin: round;
        stroke-width: .5px;
      }
    </style>
  </defs>
  <path class="cls-1" d="M2.88,8.59c.49-.21,1.26-3.48,1.75-3.31.49.17.97,1.2,1.46,1.43.49.23.97.33,1.46-.05s.97-2.19,1.46-2.23c.49-.04.97,1.33,1.46,1.99.49.66.97,2.71,1.46,1.95.49-.75.71-8.12,1.2-8.13.49,0,1.23,7.23,1.72,8.09s.97-.17,1.46-1.25.97-5.8,1.46-5.19c.49.61.97,8.65,1.46,8.85s.97-6.8,1.46-7.68c.49-.88.97,1.44,1.46,2.39.49.95.97,3.64,1.46,3.29"/>
  <path class="cls-1" d="M4.62,8.59c.49-.21,1.26-3.48,1.75-3.31.49.17.97,1.2,1.46,1.43.49.23.97.33,1.46-.05s.97-2.19,1.46-2.23c.49-.04.97,1.33,1.46,1.99.49.66.97,2.71,1.46,1.95.49-.75,1.37-8.12,1.85-8.13.49,0,.58,7.23,1.06,8.09s.97-.17,1.46-1.25.97-5.8,1.46-5.19c.49.61.97,8.65,1.46,8.85s.97-6.8,1.46-7.68c.49-.88.97,1.44,1.46,2.39.49.95.97,3.64,1.46,3.29"/>
  <path class="cls-1" d="M4.19,6.42c.49.66.97,2.71,1.46,1.95.49-.75.97-6.47,1.46-6.48.49,0,.97,5.58,1.46,6.44s.97-.17,1.46-1.25.24-7.2.73-6.59c.49.61,1.7,10.06,2.19,10.25s.97-6.8,1.46-7.68c.49-.88.97,1.44,1.46,2.39.49.95.97,3.64,1.46,3.29"/>
  <path class="cls-1" d="M1.71,10.19c.49,1.07.97,1.94,1.46.96.49-.99.97-7.22,1.46-6.86.49.36.97,8.56,1.46,9.02.49.46.97-5.23,1.46-6.26s.97-.95,1.46.08c.49,1.04.97,6.62,1.46,6.14.49-.48.97-8.67,1.46-9.01.49-.34.97,5.99,1.46,6.97.49.97.97-.04,1.46-1.12.49-1.07.97-5.93,1.46-5.34.49.59.97,8.66,1.46,8.88.49.21.97-6.68,1.46-7.58.49-.91.97,1.04,1.46,2.14.49,1.1.97,5.13,1.46,4.46.49-.67.97-6.9,1.46-7.17.49-.26.97,4.74,1.46,5.59"/>
  <path class="cls-1" d="M.58,13.37c.49-1.04.64-4.18,1.13-3.41s.97,5.17,1.46,4.76c.49-.41.97-6.97,1.46-7.2.49-.23.97,4.75,1.46,5.81.49,1.05.97,1.53,1.46.52.49-1.01.97-6.98,1.46-6.58.49.41.97,8.62,1.46,9.03s.97-5.55,1.46-6.57c.49-1.01.97-.54,1.46.52.49,1.05.97,6.34,1.46,5.82.49-.52.97-8.68,1.46-8.97.49-.29.97,6.28,1.46,7.23.49.95.97-.46,1.46-1.55.49-1.09.97-5.62,1.46-4.99.49.64.97,8.63,1.46,8.8.49.17.97-6.93,1.46-7.81.49-.87.97,1.71,1.46,2.56s.97,2.7,1.46,2.54"/>
  <path class="cls-1" d="M.25,15.11c.49.67,1.17.83,1.65.7s.78-1.05,1.26-1.51.97-2.84,1.46-2c.49.85.97,7.39,1.46,7.07s.97-8.5,1.46-9c.49-.5.97,4.97,1.46,6.01s.97,1.27,1.46.25c.49-1.02.97-6.82,1.46-6.38s.97,8.65,1.46,9.03.97-5.75,1.46-6.75c.49-.99.97-.28,1.46.79s.97,6.16,1.46,5.6c.49-.55.97-8.68,1.46-8.94s.97,6.46,1.46,7.4c.49.93.97-.72,1.46-1.82s.97-5.41,1.46-4.75c.49.66.97,8.38,1.46,8.73s.97-5.77,1.46-6.62"/>
  <path class="cls-1" d="M1.71,18.42c.49-1.1.97-5.33,1.46-4.65.49.68.97,8.58,1.46,8.69s.97-7.15,1.46-7.99c.49-.85.97,1.82,1.46,2.93.49,1.11.97,4.5,1.46,3.73.49-.77.97-8.37,1.46-8.36s.97,7.67,1.46,8.43c.49.75.97-2.78,1.46-3.9.49-1.11.97-3.62,1.46-2.76.49.86.97,8.05,1.46,7.91.49-.14.97-8.09,1.46-8.74s.97,3.71,1.46,4.81.97,2.66,1.46,1.75.97-7.46,1.46-7.21.97,8.18,1.46,8.76c.49.58.97-4.42,1.46-5.27"/>
  <path class="cls-1" d="M1.71,19.84c.49.32.97,2.08,1.46,2.23.49.15.97-.61,1.46-1.32.49-.71.97-3.55,1.46-2.94.49.61.97,6.45,1.46,6.6.49.16.97-4.73,1.46-5.68s.97-1.01,1.46.02c.49,1.04.97,6.66,1.46,6.18.49-.47.97-8.66,1.46-9.01.49-.35.97,5.95,1.46,6.93.49.98.97.01,1.46-1.06.49-1.08.97-5.97,1.46-5.39.49.59.97,8.67,1.46,8.89.49.23.97-6.66,1.46-7.55.49-.89.97,1.38,1.46,2.21.49.84.97,2.99,1.46,2.8.49-.18.97-3.55,1.46-3.91"/>
  <path class="cls-1" d="M4.62,22.33c.49-.4.97-.76,1.46-.06s.97,4.47,1.46,4.25c.49-.22.97-4.96,1.46-5.56.49-.59.97.96,1.46,1.98.49,1.02,1.05,5.48,1.53,4.8.49-.68.9-8.65,1.38-8.86s1.39,8.3,1.87,9.23c.49.93,2.01-8.36,2.5-8.02s.97,6.05,1.46,6.45c.49.41.97-3.36,1.46-4.02.49-.66.97.74,1.46,1.03"/>
  <path class="cls-1" d="M6.08,21.57c.49-.4.97-.76,1.46-.06s.97,4.47,1.46,4.25c.49-.22.97-4.96,1.46-5.56.49-.59.97.96,1.46,1.98.49,1.02,1.05,5.48,1.53,4.8.49-.68.9-8.65,1.38-8.86s1.39,8.3,1.87,9.23c.49.93,2.01-8.36,2.5-8.02s.97,6.05,1.46,6.45c.49.41.97-3.36,1.46-4.02.49-.66.97.74,1.46,1.03"/>
</svg>